# xmcd CD database file
#
# Track frame offsets:
#	150
#	19175
#	30575
#	43187
#	60275
#	73175
#	93962
#	108325
#	119275
#	139750
#	152400
#	166737
#	182487
#	210525
#	224112
#	237062
#	252712
#
# Disc length: 3710 seconds
#
# Revision: 0
# Processed by: cddbd v1.5.1PL2 Copyright (c) Steve Scherf et al.
# Submitted via: CDex 1.51
#
DISCID=e90e7c11
DTITLE=Various Artist - @Jazz Cafe Cinema
DYEAR=2003
DGENRE=Jazz
TTITLE0=Calling You-William Galison
TTITLE1=The Sadow Of Your Smile-Astrud Gilberto
TTITLE2=Soul Bossa Nova-Quicy Jones
TTITLE3=Why Should I Care-Diana Krall
TTITLE4=Moon River-Sarah Vaughan
TTITLE5=Tonight-Oscar Peterson
TTITLE6=The Way We Were-The Singers Unlimited
TTITLE7=Hello, Dolly!-Louis Armstrong
TTITLE8=Someone To Watch Over Me-Ella Fitzgerald
TTITLE9=Geneique-Miles Davis
TTITLE10=Solitude-Billie Holiday
TTITLE11=Minor Swing-Stephane Grappelli
TTITLE12=Child is Born-Joe Williams
TTITLE13=Nature Boy-Stan Getz
TTITLE14=I'll See You in My Dream-Anita O'Day
TTITLE15=For All We Know-Milt Jackson
TTITLE16=Cheek To Cheek-Fred Astaire
EXTD=YEAR: 2003
EXTT0=
EXTT1=
EXTT2=
EXTT3=
EXTT4=
EXTT5=
EXTT6=
EXTT7=
EXTT8=
EXTT9=
EXTT10=
EXTT11=
EXTT12=
EXTT13=
EXTT14=
EXTT15=
EXTT16=
PLAYORDER=
